<svg width="80" height="80" viewBox="0 0 80 80" fill="none" xmlns="http://www.w3.org/2000/svg">
<path d="M66.6667 26.6666H56.6667V13.3333H10C6.33337 13.3333 3.33337 16.3333 3.33337 19.9999V56.6666H10C10 62.3332 14.3334 66.6666 20 66.6666C25.6667 66.6666 30 62.3332 30 56.6666H50C50 62.3332 54.3334 66.6666 60 66.6666C65.6667 66.6666 70 62.3332 70 56.6666H76.6667V39.9999L66.6667 26.6666ZM20 61.6666C17.3334 61.6666 15 59.3332 15 56.6666C15 53.9999 17.3334 51.6666 20 51.6666C22.6667 51.6666 25 53.9999 25 56.6666C25 59.3332 22.6667 61.6666 20 61.6666ZM50 49.9999H27.3334C25.6667 47.9999 23 46.6666 20 46.6666C17 46.6666 14.3334 47.9999 12.6667 49.9999H10V19.9999H50V49.9999ZM60 61.6666C57.3334 61.6666 55 59.3332 55 56.6666C55 53.9999 57.3334 51.6666 60 51.6666C62.6667 51.6666 65 53.9999 65 56.6666C65 59.3332 62.6667 61.6666 60 61.6666ZM56.6667 39.9999V31.6666H65L71.6667 39.9999H56.6667Z" fill="#6187FF"/>
<path d="M16.832 41.3332L19.1573 29.7492H14.5707L15.2533 26.3999H28.6293L27.9467 29.7492H23.3813L21.056 41.3332H16.832Z" fill="#0D0D0D"/>
<path d="M28.283 41.3332L31.2696 26.3999H37.755C39.3194 26.3999 40.6563 26.6559 41.7656 27.1679C42.8892 27.6799 43.7496 28.4052 44.347 29.3439C44.9443 30.2684 45.243 31.3777 45.243 32.6719C45.243 33.9946 45.0154 35.1892 44.5603 36.2559C44.1052 37.3084 43.4652 38.2186 42.6403 38.9866C41.8154 39.7404 40.8341 40.3234 39.6963 40.7359C38.5585 41.1341 37.2998 41.3332 35.9203 41.3332H28.283ZM33.1896 37.9626H36.0483C37.115 37.9626 38.011 37.7421 38.7363 37.3012C39.4616 36.8604 40.0163 36.263 40.4003 35.5092C40.7843 34.7412 40.9763 33.8808 40.9763 32.9279C40.9763 32.2594 40.8341 31.6906 40.5496 31.2212C40.2794 30.7519 39.867 30.3964 39.3123 30.1546C38.7718 29.8986 38.0963 29.7706 37.2856 29.7706H34.811L33.1896 37.9626Z" fill="#6187FF"/>
</svg>
