<svg width="477" height="80" viewBox="0 0 477 80" fill="none" xmlns="http://www.w3.org/2000/svg">
<path d="M66.6667 26.6666H56.6667V13.3333H10C6.33337 13.3333 3.33337 16.3333 3.33337 19.9999V56.6666H10C10 62.3332 14.3334 66.6666 20 66.6666C25.6667 66.6666 30 62.3332 30 56.6666H50C50 62.3332 54.3334 66.6666 60 66.6666C65.6667 66.6666 70 62.3332 70 56.6666H76.6667V39.9999L66.6667 26.6666ZM20 61.6666C17.3334 61.6666 15 59.3332 15 56.6666C15 53.9999 17.3334 51.6666 20 51.6666C22.6667 51.6666 25 53.9999 25 56.6666C25 59.3332 22.6667 61.6666 20 61.6666ZM50 49.9999H27.3334C25.6667 47.9999 23 46.6666 20 46.6666C17 46.6666 14.3334 47.9999 12.6667 49.9999H10V19.9999H50V49.9999ZM60 61.6666C57.3334 61.6666 55 59.3332 55 56.6666C55 53.9999 57.3334 51.6666 60 51.6666C62.6667 51.6666 65 53.9999 65 56.6666C65 59.3332 62.6667 61.6666 60 61.6666ZM56.6667 39.9999V31.6666H65L71.6667 39.9999H56.6667Z" fill="#6187FF"/>
<path d="M16.832 41.3332L19.1573 29.7492H14.5707L15.2533 26.3999H28.6293L27.9467 29.7492H23.3813L21.056 41.3332H16.832Z" fill="#0D0D0D"/>
<path d="M28.283 41.3332L31.2696 26.3999H37.755C39.3194 26.3999 40.6563 26.6559 41.7656 27.1679C42.8892 27.6799 43.7496 28.4052 44.347 29.3439C44.9443 30.2684 45.243 31.3777 45.243 32.6719C45.243 33.9946 45.0154 35.1892 44.5603 36.2559C44.1052 37.3084 43.4652 38.2186 42.6403 38.9866C41.8154 39.7404 40.8341 40.3234 39.6963 40.7359C38.5585 41.1341 37.2998 41.3332 35.9203 41.3332H28.283ZM33.1896 37.9626H36.0483C37.115 37.9626 38.011 37.7421 38.7363 37.3012C39.4616 36.8604 40.0163 36.263 40.4003 35.5092C40.7843 34.7412 40.9763 33.8808 40.9763 32.9279C40.9763 32.2594 40.8341 31.6906 40.5496 31.2212C40.2794 30.7519 39.867 30.3964 39.3123 30.1546C38.7718 29.8986 38.0963 29.7706 37.2856 29.7706H34.811L33.1896 37.9626Z" fill="#6187FF"/>
<path d="M96.2 57.5L101.65 30.35H90.9L92.5 22.5H123.85L122.25 30.35H111.55L106.1 57.5H96.2ZM119.551 57.5L124.951 30.4H133.951L132.401 38.1L131.501 35.9C132.701 33.7333 134.285 32.2 136.251 31.3C138.218 30.4 140.518 29.95 143.151 29.95L141.501 38.5C141.101 38.4333 140.735 38.4 140.401 38.4C140.068 38.3667 139.718 38.35 139.351 38.35C137.285 38.35 135.585 38.85 134.251 39.85C132.951 40.8167 132.085 42.4333 131.651 44.7L129.051 57.5H119.551ZM153.369 57.95C151.169 57.95 149.252 57.4833 147.619 56.55C146.019 55.5833 144.886 54.1667 144.219 52.3C143.552 50.4333 143.486 48.1167 144.019 45.35L147.019 30.4H156.519L153.719 44.45C153.352 46.1833 153.452 47.5167 154.019 48.45C154.619 49.3833 155.669 49.85 157.169 49.85C158.769 49.85 160.102 49.3667 161.169 48.4C162.269 47.4 163.019 45.8667 163.419 43.8L166.119 30.4H175.619L170.219 57.5H161.219L162.769 49.85L163.969 52.05C162.669 54.0833 161.069 55.5833 159.169 56.55C157.302 57.4833 155.369 57.95 153.369 57.95ZM191.488 57.95C188.588 57.95 186.072 57.4333 183.938 56.4C181.805 55.3667 180.138 53.9333 178.938 52.1C177.772 50.2333 177.188 48.0667 177.188 45.6C177.188 42.6 177.905 39.9333 179.338 37.6C180.772 35.2333 182.755 33.3667 185.288 32C187.822 30.6333 190.722 29.95 193.988 29.95C197.055 29.95 199.705 30.6 201.938 31.9C204.205 33.2 205.838 35 206.838 37.3L198.738 41.15C198.238 39.8833 197.522 38.9667 196.588 38.4C195.688 37.8333 194.655 37.55 193.488 37.55C192.222 37.55 191.072 37.8833 190.038 38.55C189.038 39.1833 188.255 40.05 187.688 41.15C187.122 42.25 186.838 43.55 186.838 45.05C186.838 46.6167 187.288 47.8833 188.188 48.85C189.088 49.8167 190.405 50.3 192.138 50.3C193.372 50.3 194.472 50.0333 195.438 49.5C196.438 48.9333 197.288 48.0167 197.988 46.75L204.938 50.95C203.638 53.15 201.805 54.8667 199.438 56.1C197.105 57.3333 194.455 57.95 191.488 57.95ZM215.569 52.9L217.669 41.1L230.319 30.4H242.319L227.219 43.45L221.819 47.4L215.569 52.9ZM206.319 57.5L213.719 20.4H223.219L215.819 57.5H206.319ZM226.419 57.5L220.169 47.1L226.869 39.85L237.519 57.5H226.419ZM239.668 57.5L245.068 30.4H254.518L249.118 57.5H239.668ZM251.118 27.4C249.452 27.4 248.118 26.95 247.118 26.05C246.152 25.1167 245.668 24 245.668 22.7C245.668 21.1667 246.218 19.8833 247.318 18.85C248.452 17.8167 249.935 17.3 251.768 17.3C253.435 17.3 254.768 17.7333 255.768 18.6C256.768 19.4667 257.268 20.55 257.268 21.85C257.268 23.4833 256.702 24.8167 255.568 25.85C254.435 26.8833 252.952 27.4 251.118 27.4ZM277.595 29.95C279.895 29.95 281.845 30.4333 283.445 31.4C285.045 32.3333 286.178 33.7333 286.845 35.6C287.545 37.4333 287.611 39.7333 287.045 42.5L284.045 57.5H274.545L277.345 43.4C277.711 41.6667 277.595 40.3333 276.995 39.4C276.428 38.4667 275.361 38 273.795 38C272.195 38 270.845 38.5 269.745 39.5C268.645 40.5 267.878 42.0333 267.445 44.1L264.745 57.5H255.245L260.645 30.4H269.645L268.095 38L266.895 35.8C268.195 33.7667 269.795 32.2833 271.695 31.35C273.628 30.4167 275.595 29.95 277.595 29.95ZM302.504 67.65C299.804 67.65 297.338 67.35 295.104 66.75C292.871 66.1833 290.938 65.3167 289.304 64.15L293.554 57.55C294.621 58.3833 295.971 59.05 297.604 59.55C299.271 60.0833 300.988 60.35 302.754 60.35C305.221 60.35 307.038 59.8167 308.204 58.75C309.371 57.7167 310.154 56.2167 310.554 54.25L311.404 50.05L313.304 43L314.804 35.35L315.754 30.4H324.804L320.404 52.5C319.338 57.8667 317.271 61.7333 314.204 64.1C311.171 66.4667 307.271 67.65 302.504 67.65ZM303.204 56.1C301.071 56.1 299.104 55.65 297.304 54.75C295.504 53.8167 294.054 52.5 292.954 50.8C291.888 49.0667 291.354 46.9833 291.354 44.55C291.354 42.5167 291.721 40.6167 292.454 38.85C293.221 37.0833 294.271 35.5333 295.604 34.2C296.971 32.8667 298.554 31.8333 300.354 31.1C302.154 30.3333 304.104 29.95 306.204 29.95C308.204 29.95 309.971 30.3333 311.504 31.1C313.071 31.8667 314.238 33.1333 315.004 34.9C315.804 36.6667 316.004 39.0667 315.604 42.1C315.271 45.0667 314.554 47.6 313.454 49.7C312.388 51.7667 310.988 53.35 309.254 54.45C307.521 55.55 305.504 56.1 303.204 56.1ZM306.004 48.5C307.271 48.5 308.371 48.2333 309.304 47.7C310.271 47.1667 311.021 46.4167 311.554 45.45C312.121 44.45 312.404 43.3 312.404 42C312.404 40.6667 311.954 39.6 311.054 38.8C310.188 37.9667 308.954 37.55 307.354 37.55C306.088 37.55 304.971 37.8333 304.004 38.4C303.038 38.9333 302.271 39.7 301.704 40.7C301.171 41.6667 300.904 42.8 300.904 44.1C300.904 45.4333 301.354 46.5 302.254 47.3C303.188 48.1 304.438 48.5 306.004 48.5Z" fill="black"/>
<path d="M340.509 57.5L347.509 22.5H362.709C366.376 22.5 369.509 23.1 372.109 24.3C374.742 25.5 376.759 27.2 378.159 29.4C379.559 31.5667 380.259 34.1667 380.259 37.2C380.259 40.3 379.726 43.1 378.659 45.6C377.592 48.0667 376.092 50.2 374.159 52C372.226 53.7667 369.926 55.1333 367.259 56.1C364.592 57.0333 361.642 57.5 358.409 57.5H340.509ZM352.009 49.6H358.709C361.209 49.6 363.309 49.0833 365.009 48.05C366.709 47.0167 368.009 45.6167 368.909 43.85C369.809 42.05 370.259 40.0333 370.259 37.8C370.259 36.2333 369.926 34.9 369.259 33.8C368.626 32.7 367.659 31.8667 366.359 31.3C365.092 30.7 363.509 30.4 361.609 30.4H355.809L352.009 49.6ZM396.668 57.95C393.768 57.95 391.234 57.45 389.068 56.45C386.934 55.4167 385.268 53.9833 384.068 52.15C382.868 50.2833 382.268 48.1 382.268 45.6C382.268 42.6 382.951 39.9333 384.318 37.6C385.684 35.2333 387.601 33.3667 390.068 32C392.534 30.6333 395.401 29.95 398.668 29.95C401.434 29.95 403.801 30.45 405.768 31.45C407.768 32.45 409.301 33.85 410.368 35.65C411.468 37.4167 412.018 39.4833 412.018 41.85C412.018 42.65 411.968 43.4167 411.868 44.15C411.768 44.8833 411.634 45.6 411.468 46.3H389.718L390.618 41.3H407.068L403.118 42.75C403.384 41.45 403.334 40.3667 402.968 39.5C402.634 38.6 402.051 37.9167 401.218 37.45C400.418 36.95 399.418 36.7 398.218 36.7C396.684 36.7 395.418 37.0833 394.418 37.85C393.451 38.6167 392.718 39.6667 392.218 41C391.751 42.3 391.518 43.7167 391.518 45.25C391.518 47.1167 392.034 48.5 393.068 49.4C394.101 50.2667 395.651 50.7 397.718 50.7C398.918 50.7 400.084 50.5167 401.218 50.15C402.384 49.75 403.401 49.2 404.268 48.5L408.218 54.45C406.518 55.7167 404.668 56.6167 402.668 57.15C400.701 57.6833 398.701 57.95 396.668 57.95ZM423.852 57.95C421.452 57.95 419.186 57.7 417.052 57.2C414.919 56.6667 413.269 56.0333 412.102 55.3L415.552 48.65C416.819 49.45 418.302 50.0667 420.002 50.5C421.702 50.9333 423.352 51.15 424.952 51.15C426.519 51.15 427.636 50.9833 428.302 50.65C428.969 50.2833 429.302 49.8 429.302 49.2C429.302 48.6667 428.952 48.2833 428.252 48.05C427.586 47.7833 426.719 47.5667 425.652 47.4C424.586 47.2333 423.452 47.0167 422.252 46.75C421.086 46.4833 419.969 46.1 418.902 45.6C417.836 45.1 416.952 44.4 416.252 43.5C415.586 42.5667 415.252 41.3333 415.252 39.8C415.252 37.6333 415.886 35.8167 417.152 34.35C418.419 32.8833 420.136 31.7833 422.302 31.05C424.502 30.3167 426.969 29.95 429.702 29.95C431.636 29.95 433.502 30.1333 435.302 30.5C437.102 30.8667 438.669 31.4 440.002 32.1L436.652 38.75C435.319 37.95 433.952 37.4167 432.552 37.15C431.152 36.85 429.836 36.7 428.602 36.7C427.036 36.7 425.919 36.9 425.252 37.3C424.586 37.7 424.252 38.1833 424.252 38.75C424.252 39.25 424.586 39.65 425.252 39.95C425.952 40.2167 426.819 40.45 427.852 40.65C428.919 40.8167 430.052 41.0333 431.252 41.3C432.452 41.5333 433.569 41.9 434.602 42.4C435.669 42.9 436.536 43.6 437.202 44.5C437.902 45.4 438.252 46.6167 438.252 48.15C438.252 50.2833 437.602 52.0833 436.302 53.55C435.036 55.0167 433.319 56.1167 431.152 56.85C428.986 57.5833 426.552 57.95 423.852 57.95ZM449.846 52.9L451.946 41.1L464.596 30.4H476.596L461.496 43.45L456.096 47.4L449.846 52.9ZM440.596 57.5L447.996 20.4H457.496L450.096 57.5H440.596ZM460.696 57.5L454.446 47.1L461.146 39.85L471.796 57.5H460.696Z" fill="#6187FF"/>
</svg>
